<!-- Generated by IcoMoon.io -->
<svg version="1.1" xmlns="http://www.w3.org/2000/svg" width="1024" height="1024" viewBox="0 0 1024 1024">
<path d="M718.12 519.582l-135.852 128.912c-4.415 4.189-11.592 4.189-16.007 0-4.417-4.189-4.417-11.001 0-15.19l116.515-110.564h-368.908c-6.251 0-11.322-4.813-11.322-10.743s5.071-10.743 11.322-10.743h368.908l-116.515-110.564c-4.417-4.189-4.417-11.001 0-15.19 2.218-2.106 5.115-3.137 8.015-3.137 2.897 0 5.795 1.052 8.015 3.137l135.852 128.912c4.415 4.189 4.415 11.001 0 15.19l-0.023-0.021z"></path>
</svg>
    