<svg width="18" height="12" viewBox="0 0 18 12" fill="none" xmlns="http://www.w3.org/2000/svg">
<path d="M0.143261 5.67422L5.9807 0.135018C6.17042 -0.0450064 6.47883 -0.0450064 6.66855 0.135018C6.85827 0.315042 6.85827 0.607696 6.66855 0.78772L1.66197 5.53851L17.5135 5.53851C17.7821 5.53851 18 5.74531 18 6.00011C18 6.25492 17.7821 6.46172 17.5135 6.46172L1.66197 6.46171L6.66855 11.2125C6.85827 11.3925 6.85827 11.6852 6.66855 11.8652C6.5732 11.9557 6.44867 12 6.32414 12C6.19961 12 6.07508 11.9548 5.97973 11.8652L0.142288 6.326C-0.0474284 6.14598 -0.0474284 5.85333 0.142288 5.6733L0.143261 5.67422Z" fill="#FAFAFA" fill-opacity="0.3"/>
</svg>
