<svg width="202" height="32" viewBox="0 0 202 32" fill="none" xmlns="http://www.w3.org/2000/svg">
<rect y="0.5" width="98" height="31" fill="#ED1D24"/>
<path d="M4.33606 26.5V6.90001H8.81606L10.4401 16.98L12.0361 6.90001H16.6001V26.528H12.9601V17.064L11.3641 26.5H9.48806L7.89206 17.148V26.5H4.33606Z" fill="#FAFAFA"/>
<path d="M24.4989 6.90001L27.4669 26.5H23.9109L23.5189 23.476H20.7749L20.3549 26.5H16.8549L19.7949 6.90001H24.4989ZM23.1549 20.34L22.1469 12.108L21.1949 20.34H23.1549Z" fill="#FAFAFA"/>
<path d="M31.6116 6.90001C32.2649 6.90001 32.8809 7.00268 33.4596 7.20801C34.0569 7.41334 34.5889 7.74001 35.0556 8.18801C35.5222 8.61734 35.9049 9.17734 36.2036 9.86801C36.5209 10.5587 36.7262 11.3987 36.8196 12.388C36.9502 13.6013 36.9129 14.6187 36.7076 15.44C36.5209 16.2427 36.2876 16.8867 36.0076 17.372C35.6902 17.9693 35.3076 18.436 34.8596 18.772L37.1836 26.5H33.5996L31.8916 19.92L31.1076 20.06V26.5H27.5796L27.6076 6.90001H31.6116ZM31.1076 16.588C31.5369 16.5507 31.8916 16.448 32.1716 16.28C32.4516 16.0933 32.6849 15.86 32.8716 15.58C33.0582 15.3 33.1889 14.9827 33.2636 14.628C33.3382 14.2733 33.3756 13.9093 33.3756 13.536C33.3756 13.144 33.3382 12.7613 33.2636 12.388C33.1889 11.996 33.0676 11.6507 32.8996 11.352C32.7316 11.0347 32.4982 10.7827 32.1996 10.596C31.9196 10.4093 31.5556 10.316 31.1076 10.316V16.588Z" fill="#FAFAFA"/>
<path d="M39.8635 6.90001L41.4315 18.716L43.0835 6.90001H46.6115L43.5035 26.5H39.3595L36.2235 6.90001H39.8635Z" fill="#FAFAFA"/>
<path d="M46.8328 26.5V6.90001H53.4128V10.372H50.4448V14.796H53.4408V18.436H50.2768V22.86H53.4688V26.5H46.8328Z" fill="#FAFAFA"/>
<path d="M58.0412 6.87201V22.972H61.0652V26.528H54.5692V6.90001L58.0412 6.87201Z" fill="#FAFAFA"/>
<path d="M61.9253 16.7C61.9253 15.2253 62.0559 13.8907 62.3173 12.696C62.5786 11.4827 62.9426 10.4467 63.4093 9.58801C63.8759 8.72934 64.4453 8.06668 65.1173 7.60001C65.7893 7.13334 66.5266 6.90001 67.3293 6.90001C68.1319 6.90001 68.8599 7.13334 69.5133 7.60001C70.1853 8.06668 70.7546 8.72934 71.2213 9.58801C71.688 10.4467 72.0519 11.4827 72.3133 12.696C72.5746 13.8907 72.7053 15.2253 72.7053 16.7C72.7053 18.1747 72.5746 19.5187 72.3133 20.732C72.0519 21.9267 71.688 22.9533 71.2213 23.812C70.7546 24.6707 70.1853 25.3333 69.5133 25.8C68.8599 26.2667 68.1319 26.5 67.3293 26.5C66.5266 26.5 65.7893 26.2667 65.1173 25.8C64.4453 25.3333 63.8759 24.6707 63.4093 23.812C62.9426 22.9533 62.5786 21.9267 62.3173 20.732C62.0559 19.5187 61.9253 18.1747 61.9253 16.7ZM65.3973 16.756C65.3973 17.6893 65.4439 18.5387 65.5373 19.304C65.6306 20.0693 65.7613 20.732 65.9293 21.292C66.0973 21.8333 66.2933 22.2533 66.5173 22.552C66.7599 22.8507 67.0213 23 67.3013 23C67.5813 23 67.8333 22.8507 68.0573 22.552C68.2999 22.2533 68.4959 21.8333 68.6453 21.292C68.8133 20.732 68.9439 20.0693 69.0373 19.304C69.1306 18.5387 69.1773 17.6893 69.1773 16.756C69.1773 15.8227 69.1306 14.9733 69.0373 14.208C68.9439 13.424 68.8133 12.7613 68.6453 12.22C68.4959 11.6787 68.2999 11.2587 68.0573 10.96C67.8333 10.6613 67.5813 10.512 67.3013 10.512C67.0213 10.512 66.7599 10.6613 66.5173 10.96C66.2933 11.2587 66.0973 11.6787 65.9293 12.22C65.7613 12.7613 65.6306 13.424 65.5373 14.208C65.4439 14.9733 65.3973 15.8227 65.3973 16.756Z" fill="#FAFAFA"/>
<path d="M84.2411 16.812C84.2411 17.4653 84.2317 18.1653 84.2131 18.912C84.2131 19.64 84.1664 20.368 84.0731 21.096C83.9984 21.8053 83.8584 22.4867 83.6531 23.14C83.4477 23.7933 83.1397 24.372 82.7291 24.876C82.3371 25.3613 81.8237 25.7533 81.1891 26.052C80.5544 26.3507 79.7704 26.5 78.8371 26.5C77.5491 26.5 76.5411 26.276 75.8131 25.828C75.1037 25.38 74.5717 24.7453 74.2171 23.924C73.8811 23.084 73.6757 22.076 73.6011 20.9C73.5451 19.724 73.5171 18.4173 73.5171 16.98V6.87201H76.9611V16.812C76.9797 17.9693 77.0544 18.996 77.1851 19.892C77.2411 20.284 77.3157 20.6667 77.4091 21.04C77.5024 21.3947 77.6144 21.7213 77.7451 22.02C77.8944 22.3 78.0531 22.5333 78.2211 22.72C78.4077 22.888 78.6131 22.972 78.8371 22.972C79.1171 22.972 79.3504 22.888 79.5371 22.72C79.7424 22.5333 79.9104 22.3 80.0411 22.02C80.1904 21.7213 80.3024 21.3947 80.3771 21.04C80.4704 20.6667 80.5451 20.284 80.6011 19.892C80.7131 18.996 80.7597 17.9693 80.7411 16.812V6.90001H84.2411V16.812Z" fill="#FAFAFA"/>
<path d="M93.1761 6.90001C93.1948 6.90001 93.2041 7.08668 93.2041 7.46001C93.2041 7.81468 93.2041 8.20668 93.2041 8.63601C93.2041 9.15868 93.1948 9.74668 93.1761 10.4C92.5975 10.4 92.0095 10.456 91.4121 10.568C90.8335 10.6613 90.3108 10.82 89.8441 11.044C89.3961 11.2493 89.0228 11.5013 88.7241 11.8C88.4441 12.0987 88.3041 12.444 88.3041 12.836C88.3041 13.172 88.4255 13.4613 88.6681 13.704C88.9295 13.9467 89.2375 14.1893 89.5921 14.432C89.9655 14.6747 90.3668 14.9453 90.7961 15.244C91.2441 15.524 91.6455 15.86 92.0001 16.252C92.3735 16.644 92.6815 17.12 92.9241 17.68C93.1855 18.24 93.3161 18.9213 93.3161 19.724C93.3161 20.9187 93.0921 21.9453 92.6441 22.804C92.2148 23.644 91.6175 24.344 90.8521 24.904C90.1055 25.4453 89.2281 25.8467 88.2201 26.108C87.2121 26.3693 86.1481 26.5 85.0281 26.5V23C85.3641 23 85.8028 22.944 86.3441 22.832C86.8855 22.72 87.4081 22.5333 87.9121 22.272C88.4348 22.0107 88.8828 21.6653 89.2561 21.236C89.6295 20.8067 89.8068 20.2747 89.7881 19.64C89.7881 19.3227 89.6668 19.052 89.4241 18.828C89.1815 18.5853 88.8735 18.352 88.5001 18.128C88.1455 17.8853 87.7628 17.6333 87.3521 17.372C86.9415 17.092 86.5495 16.756 86.1761 16.364C85.8215 15.9533 85.5228 15.468 85.2801 14.908C85.0561 14.348 84.9441 13.6573 84.9441 12.836C84.9441 11.9773 85.1868 11.184 85.6721 10.456C86.1761 9.72801 86.8201 9.10268 87.6041 8.58001C88.3881 8.05734 89.2655 7.64668 90.2361 7.34801C91.2255 7.04934 92.2055 6.90001 93.1761 6.90001Z" fill="#FAFAFA"/>
<path d="M109.784 6.90001L112.752 26.5H109.196L108.804 23.476H106.06L105.64 26.5H102.14L105.08 6.90001H109.784ZM108.44 20.34L107.432 12.108L106.48 20.34H108.44Z" fill="#FAFAFA"/>
<path d="M116.197 6.87201C117.093 6.87201 117.867 7.04001 118.521 7.37601C119.174 7.71201 119.734 8.16001 120.201 8.72001C120.667 9.28001 121.05 9.93334 121.349 10.68C121.647 11.408 121.881 12.164 122.049 12.948C122.217 13.732 122.329 14.5253 122.385 15.328C122.459 16.112 122.497 16.84 122.497 17.512C122.497 19.0053 122.338 20.2653 122.021 21.292C121.722 22.3187 121.33 23.1587 120.845 23.812C120.378 24.4653 119.883 24.9787 119.361 25.352C118.427 26.0053 117.373 26.3787 116.197 26.472H112.753L112.809 6.87201H116.197ZM116.253 23.504C116.253 23.504 116.318 23.4947 116.449 23.476C116.579 23.4573 116.747 23.392 116.953 23.28C117.177 23.1493 117.41 22.9533 117.653 22.692C117.914 22.4307 118.147 22.0573 118.353 21.572C118.577 21.0867 118.754 20.48 118.885 19.752C119.034 19.0053 119.109 18.0907 119.109 17.008C119.109 16.728 119.099 16.364 119.081 15.916C119.062 15.468 119.015 14.992 118.941 14.488C118.885 13.984 118.791 13.48 118.661 12.976C118.53 12.472 118.353 12.0147 118.129 11.604C117.923 11.1933 117.662 10.8667 117.345 10.624C117.027 10.3627 116.645 10.232 116.197 10.232L116.253 23.504Z" fill="#FAFAFA"/>
<path d="M127.035 6.90001L128.603 18.716L130.255 6.90001H133.783L130.675 26.5H126.531L123.395 6.90001H127.035Z" fill="#FAFAFA"/>
<path d="M134.005 26.5V6.90001H140.585V10.372H137.617V14.796H140.613V18.436H137.449V22.86H140.641V26.5H134.005Z" fill="#FAFAFA"/>
<path d="M141.713 26.5V6.90001H145.213L148.209 17.036V6.90001H151.793V26.5H148.209L145.185 17.148V26.528L141.713 26.5Z" fill="#FAFAFA"/>
<path d="M163.6 6.90001V10.456H160.072V26.5H156.628V10.456H152.848V6.90001H163.6Z" fill="#FAFAFA"/>
<path d="M175.788 16.812C175.788 17.4653 175.779 18.1653 175.76 18.912C175.76 19.64 175.713 20.368 175.62 21.096C175.545 21.8053 175.405 22.4867 175.2 23.14C174.995 23.7933 174.687 24.372 174.276 24.876C173.884 25.3613 173.371 25.7533 172.736 26.052C172.101 26.3507 171.317 26.5 170.384 26.5C169.096 26.5 168.088 26.276 167.36 25.828C166.651 25.38 166.119 24.7453 165.764 23.924C165.428 23.084 165.223 22.076 165.148 20.9C165.092 19.724 165.064 18.4173 165.064 16.98V6.87201H168.508V16.812C168.527 17.9693 168.601 18.996 168.732 19.892C168.788 20.284 168.863 20.6667 168.956 21.04C169.049 21.3947 169.161 21.7213 169.292 22.02C169.441 22.3 169.6 22.5333 169.768 22.72C169.955 22.888 170.16 22.972 170.384 22.972C170.664 22.972 170.897 22.888 171.084 22.72C171.289 22.5333 171.457 22.3 171.588 22.02C171.737 21.7213 171.849 21.3947 171.924 21.04C172.017 20.6667 172.092 20.284 172.148 19.892C172.26 18.996 172.307 17.9693 172.288 16.812V6.90001H175.788V16.812Z" fill="#FAFAFA"/>
<path d="M180.635 6.90001C181.288 6.90001 181.904 7.00268 182.483 7.20801C183.08 7.41334 183.612 7.74001 184.079 8.18801C184.546 8.61734 184.928 9.17734 185.227 9.86801C185.544 10.5587 185.75 11.3987 185.843 12.388C185.974 13.6013 185.936 14.6187 185.731 15.44C185.544 16.2427 185.311 16.8867 185.031 17.372C184.714 17.9693 184.331 18.436 183.883 18.772L186.207 26.5H182.623L180.915 19.92L180.131 20.06V26.5H176.603L176.631 6.90001H180.635ZM180.131 16.588C180.56 16.5507 180.915 16.448 181.195 16.28C181.475 16.0933 181.708 15.86 181.895 15.58C182.082 15.3 182.212 14.9827 182.287 14.628C182.362 14.2733 182.399 13.9093 182.399 13.536C182.399 13.144 182.362 12.7613 182.287 12.388C182.212 11.996 182.091 11.6507 181.923 11.352C181.755 11.0347 181.522 10.7827 181.223 10.596C180.943 10.4093 180.579 10.316 180.131 10.316V16.588Z" fill="#FAFAFA"/>
<path d="M185.247 26.5V6.90001H191.827V10.372H188.859V14.796H191.855V18.436H188.691V22.86H191.883V26.5H185.247Z" fill="#FAFAFA"/>
<path d="M201.047 6.90001C201.066 6.90001 201.075 7.08668 201.075 7.46001C201.075 7.81468 201.075 8.20668 201.075 8.63601C201.075 9.15868 201.066 9.74668 201.047 10.4C200.469 10.4 199.881 10.456 199.283 10.568C198.705 10.6613 198.182 10.82 197.715 11.044C197.267 11.2493 196.894 11.5013 196.595 11.8C196.315 12.0987 196.175 12.444 196.175 12.836C196.175 13.172 196.297 13.4613 196.539 13.704C196.8 13.9467 197.109 14.1893 197.463 14.432C197.837 14.6747 198.238 14.9453 198.667 15.244C199.115 15.524 199.517 15.86 199.871 16.252C200.245 16.644 200.553 17.12 200.795 17.68C201.057 18.24 201.187 18.9213 201.187 19.724C201.187 20.9187 200.963 21.9453 200.515 22.804C200.086 23.644 199.489 24.344 198.723 24.904C197.977 25.4453 197.099 25.8467 196.091 26.108C195.083 26.3693 194.019 26.5 192.899 26.5V23C193.235 23 193.674 22.944 194.215 22.832C194.757 22.72 195.279 22.5333 195.783 22.272C196.306 22.0107 196.754 21.6653 197.127 21.236C197.501 20.8067 197.678 20.2747 197.659 19.64C197.659 19.3227 197.538 19.052 197.295 18.828C197.053 18.5853 196.745 18.352 196.371 18.128C196.017 17.8853 195.634 17.6333 195.223 17.372C194.813 17.092 194.421 16.756 194.047 16.364C193.693 15.9533 193.394 15.468 193.151 14.908C192.927 14.348 192.815 13.6573 192.815 12.836C192.815 11.9773 193.058 11.184 193.543 10.456C194.047 9.72801 194.691 9.10268 195.475 8.58001C196.259 8.05734 197.137 7.64668 198.107 7.34801C199.097 7.04934 200.077 6.90001 201.047 6.90001Z" fill="#FAFAFA"/>
<path d="M104 1.5H200" stroke="#FAFAFA"/>
<path d="M104 31.5H200" stroke="#FAFAFA"/>
</svg>
